<?xml version="1.0" encoding="utf-8"?><!-- Uploaded to: SVG Repo, www.svgrepo.com, Generator: SVG Repo Mixer Tools -->
<svg fill="#dc2626" width="30px" height="30px" viewBox="0 0 24 24" xmlns="http://www.w3.org/2000/svg"><path d="M5,22H19a1,1,0,0,0,1-1V6.414a1,1,0,0,0-.293-.707L16.293,2.293A1,1,0,0,0,15.586,2H5A1,1,0,0,0,4,3V21A1,1,0,0,0,5,22ZM8.793,10.207a1,1,0,0,1,1.414-1.414L12,10.586l1.793-1.793a1,1,0,0,1,1.414,1.414L13.414,12l1.793,1.793a1,1,0,1,1-1.414,1.414L12,13.414l-1.793,1.793a1,1,0,0,1-1.414-1.414L10.586,12Z"/></svg>